<?xml version="1.0" encoding="UTF-8"?> <svg xmlns="http://www.w3.org/2000/svg" xmlns:xlink="http://www.w3.org/1999/xlink" version="1.1" id="Layer_1" x="0px" y="0px" width="490px" height="490px" viewBox="0 0 490 490" style="enable-background:new 0 0 490 490;" xml:space="preserve"> <style type="text/css"> .st0{fill:#010101;} .st1{fill:#FFFFFF;} </style> <path class="st0" d="M388.8,485.2H100.2c-52.7,0-95.4-42.7-95.4-95.4V101.3c0-52.7,42.7-95.4,95.4-95.4h288.5 c52.7,0,95.4,42.7,95.4,95.4v288.5C484.1,442.5,441.4,485.2,388.8,485.2z"></path> <g> <g> <path class="st1" d="M102.2,194.9c-26.1,0-36.1,20.4-36.1,50c0,29.9,10,50.2,37.6,50.2c18.4,0,31.2-11.1,31.6-26.3h-30.1V240h71.2 v84.1H148l-4-20.1h-0.4c-7.5,14.4-22.3,23.7-45.6,23.7c-44.9,0-71.7-35-71.7-82.7c0-47.6,26.8-82.5,76.6-82.5 c43.4,0,67.5,25.7,71.2,56h-39.8C131.4,207.5,124.1,194.9,102.2,194.9z"></path> <path class="st1" d="M289.8,324.1l-7.3-8.9c-11.7,7.7-25.9,12.4-42.7,12.4c-36.5,0-54.6-18.4-54.6-42.5 c0-24.6,17.5-35.4,35.4-44.5c-10.8-12.8-18.6-22.6-18.6-38.1c0-20.1,16.8-40,47.6-40.3c29-0.2,47.3,20.1,47.6,40.3 c0.2,18.1-11.9,28.8-33.2,39.8l21.7,25c3.5-7.5,6.2-15.3,7.5-22.6h31c-1.8,15.3-7.7,32.3-17.7,46.9l27.7,32.3H289.8z M263.5,292.5 l-28.5-34.7c-10.2,7.3-12.2,14.2-12.2,20.4c0,10.4,6.9,19.2,21.5,19.2C251.5,297.3,257.9,295.6,263.5,292.5z M235.2,204.8 c0,7.1,5.5,12.4,13.5,20.4c10-6.6,15.3-12.8,15.3-20.4c0-6.4-4.2-12.2-14.4-12.2C239.8,192.7,235.2,198.4,235.2,204.8z"></path> <path class="st1" d="M463.7,277.6c0,30.3-23,50-62.6,50c-41.2,0-72.1-20.4-72.1-55.5h39.8c0,16.8,14.6,23,32.3,23 c14.8,0,22.8-5.8,22.8-13.7c0-12.6-17-15.5-39.4-22.1c-27.2-8-51.1-19.7-51.1-48.9c0-34.5,27-48,61.1-48c36.9,0,65.9,19.5,67,51.5 h-39.8c-1.8-11.9-11.9-19-27.2-19c-11.9,0-21.2,3.8-21.2,12.6c0,9.7,10,12.8,29.9,18.4C432.9,234,463.7,243.8,463.7,277.6z"></path> </g> </g> </svg> 