<?xml version="1.0" encoding="utf-8"?>
<!-- Generator: Adobe Illustrator 26.1.0, SVG Export Plug-In . SVG Version: 6.00 Build 0)  -->
<svg version="1.1" id="Layer_1" xmlns="http://www.w3.org/2000/svg" xmlns:xlink="http://www.w3.org/1999/xlink" x="0px" y="0px"
	 width="572px" height="490px" viewBox="0 0 572 490" style="enable-background:new 0 0 572 490;" xml:space="preserve">
<style type="text/css">
	.st0{fill:#D1D1D1;}
	.st1{fill:#F4F4F4;}
</style>
<g>
	<g>
		<path class="st0" d="M525,50H266c-17.1,0-33.7-5.2-47.8-14.9l-32-22c-7-4.8-15.3-7.4-23.8-7.4L47,5.4C23.7,5.3,4.7,24.3,4.7,47.6
			v176.2c0,23.3,18.9,42.2,42.2,42.2H525c23.3,0,42.2-18.9,42.2-42.2V92.2C567.1,68.9,548.2,50,525,50z"/>
		<path class="st1" d="M520,484.6H51.9c-26.2,0-47.4-21.2-47.4-47.4V139.8c0-26.2,21.2-47.4,47.4-47.4H520
			c26.2,0,47.4,21.2,47.4,47.4v297.5C567.3,463.4,546.1,484.6,520,484.6z"/>
	</g>
</g>
</svg>
